<svg version="1.1" xmlns="http://www.w3.org/2000/svg"
xmlns:xlink="http://www.w3.org/1999/xlink" viewBox="0 0 960 480">
  <title>advertisment</title>
  <!-- Дублирование глаз кота -->
  <!-- <g>
    <circle cx="521" cy="180" fill="#ffffff" id="svg_1" r="44" stroke="#000000" stroke-width="5"/>
    <circle cx="453" cy="180" fill="#ffffff" id="svg_2" r="44" stroke="#000000" stroke-width="5"/>
    <circle cx="528" cy="180" id="svg_3" r="12" stroke="#000000" stroke-width="5"/>
    <circle cx="456" cy="180" id="svg_4" r="12" stroke="#000000" stroke-width="5"/>
  </g> -->
  <g>
    <line id="svg_5" stroke="#000000" stroke-width="5" x1="362" x2="399" y1="98" y2="19"/>
    <line id="svg_6" stroke="#000000" stroke-width="5" x1="431" x2="399" y1="95" y2="19"/>
    <line id="svg_7" stroke="#000000" stroke-width="5" x1="521" x2="545" y1="94" y2="19"/>
    <line id="svg_8" stroke="#000000" stroke-width="5" x1="589" x2="545" y1="97" y2="19"/>
    <path d="m386,98c0,0 13,-43 12,-43c-1,0 21,39 20,39" fill="#ff5656" id="svg_9" stroke="#000000" stroke-width="5"/>
    <path d="m372,256c3,-18 -41,-38 -68,-23c-27,14 -42,75 -20,117c22,41 104,0 87,3" fill="none" id="svg_10" stroke="#000000" stroke-width="5"/>
    <path d="m592,252c0,0 52,-36 89,-3c37,33 35,66 7,101c-27.5,35 -76.5,0 -97.5,-1" fill="none" id="svg_11" stroke="#000000" stroke-width="5"/>
    <path d="m624.5,264.06668c106,-51 195,-52 304.5,-12.06668" fill="none" id="svg_12" stroke="#000000" stroke-width="5"/>
    <path d="m654.91666,332.52045c127,-17 180,11 261.5,48.93332" fill="none" id="svg_13" stroke="#000000" stroke-width="5"/>
    <path d="m647.91666,301.52045c126,-45 192,-23 271.5,19.93332" fill="none" id="svg_14" stroke="#000000" stroke-width="5"/>
    <path d="m73.91666,415.52045c100,-57 210,-85 237.5,-78.06668" fill="none" id="svg_15" stroke="#000000" stroke-width="5"/>
    <path d="m44.91666,306.52045c166,-35 253,-8 280.5,-1.06668" fill="none" id="svg_16" stroke="#000000" stroke-width="5"/>
    <path d="m53.91666,231.52045c166,-35 245,13 272.5,19.93332" fill="none" id="svg_17" stroke="#000000" stroke-width="5"/>
    <path d="m468.16863,470.52045c4.77171,-33 -0.78536,-60 -11.75124,-76.06668" fill="none" id="svg_18" stroke="#000000" stroke-width="5"/>
    <path d="m486.5,469.06668c9,-46 21,-70 48.5,-87.06668" fill="none" id="svg_19" stroke="#000000" stroke-width="5"/>
    <ellipse cx="488" cy="255" id="svg_20" rx="17" ry="10" stroke="#000000" stroke-width="5"/>
    <path d="m466,252.7c0,0 13,-43 12,-43.07c-1,-0.07 21,39.07 20,39" fill="#ff5656" id="svg_21" stroke="#000000" stroke-width="5" transform="translate(71, -151)"/>
    <path d="m473.5,330l-67.5,-27c0,0 -22.5,73 6.5,52c29,-21 61,-25 61,-25z" fill="#ff5656" id="svg_22" stroke="#000000" stroke-width="5"/>
    <path d="m385.91669,98.06668c0,0 13,-43 12.08331,-43.06668c-0.91669,-0.06668 20.91669,39.06668 20,39" fill="#ff5656" id="svg_23" stroke="#000000" stroke-width="5"/>
  </g>
</svg>
