<svg version="1.1" xmlns="http://www.w3.org/2000/svg"
xmlns:xlink="http://www.w3.org/1999/xlink"  width="18" height="52" viewBox="0 0 180 520">
 
<!-- <symbol id="blackAndWhite" viewBox="0 0 180 240" x="18" y="48"preserveAspectRatio="xMinYMin"> -->
  <g >
    <title>Rubiks Cube</title>
    <polygon fill="none" id="svg_1" points="0,60 30,40 60,60 30,80" stroke="#000000" stroke-width="null"/>
    <polygon fill="none" id="svg_2" points="30,40 60,20 90,40 60,60 " stroke="#000000" stroke-width="null"/>
    <polygon fill="none" id="svg_3" points="60,20 90,0 120,20 90,40 " stroke="#000000" stroke-width="null"/>
    <polygon fill="none" id="svg_5" points="60,60 90,40 120,60 90,80 " stroke="#000000" stroke-width="null"/>
    <polygon fill="none" id="svg_6" points="90,40 120,20 150,40 120,60 " stroke="#000000" stroke-width="null"/>
    <polygon fill="none" id="svg_4" points="30,80 60,60 90,80 60,100 " stroke="#000000" stroke-width="null"/>
    <polygon fill="none" id="svg_7" points="60,100 90,80 120,100 90,120 " stroke="#000000" stroke-width="null"/>
    <polygon fill="none" id="svg_8" points="90,80 120,60 150,80 120,100 " stroke="#000000" stroke-width="null"/>
    <polygon fill="none" id="svg_9" points="120,60 150,40 180,60 150,80 " stroke="#000000" stroke-width="null"/>
    <polygon fill="none" id="svg_10" points="0,60 30,80 30,120 0,100 " stroke="#000000" stroke-width="null"/>
    <polygon fill="none" id="svg_11" points="30,80 60,100 60,140 30,120 " stroke="#000000" stroke-width="null"/>
    <polygon fill="none" id="svg_12" points="60,100 90,120 90,160 60,140 " stroke="#000000" stroke-width="null"/>
    <polygon fill="none" id="svg_13" points="0,100 30,120 30,160 0,140 " stroke="#000000" stroke-width="null"/>
    <polygon fill="none" id="svg_14" points="30,120 60,140 60,180 30,160 " stroke="#000000" stroke-width="null"/>
    <polygon fill="none" id="svg_15" points="60,140 90,160 90,200 60,180 " stroke="#000000" stroke-width="null"/>
    <polygon fill="none" id="svg_16" points="0,140 30,160 30,200 0,180 " stroke="#000000" stroke-width="null"/>
    <polygon fill="none" id="svg_17" points="30,160 60,180 60,220 30,200 " stroke="#000000" stroke-width="null"/>
    <polygon fill="none" id="svg_18" points="60,180 90,200 90,240 60,220 " stroke="#000000" stroke-width="null"/>
    <polygon fill="none" id="svg_19" points="90,120 120,100 120,140 90,160 " stroke="#000000" stroke-width="null"/>
    <polygon fill="none" id="svg_20" points="120,100 150,80 150,120 120,140 " stroke="#000000" stroke-width="null"/>
    <polygon fill="none" id="svg_21" points="150,80 180,60 180,100 150,120 " stroke="#000000" stroke-width="null"/>
    <polygon fill="none" id="svg_22" points="90,160 120,140 120,180 90,200 " stroke="#000000" stroke-width="null"/>
    <polygon fill="none" id="svg_23" points="120,140 150,120 150,160 120,180 " stroke="#000000" stroke-width="null"/>
    <polygon fill="none" id="svg_24" points="150,120 180,100 180,140 150,160 " stroke="#000000" stroke-width="null"/>
    <polygon fill="none" id="svg_25" points="90,200 120,180 120,220 90,240 " stroke="#000000" stroke-width="null"/>
    <polygon fill="none" id="svg_26" points="120,180 150,160 150,200 120,220 " stroke="#000000" stroke-width="null"/>
    <polygon fill="none" id="svg_27" points="150,160 180,140 180,180 150,200 " stroke="#000000" stroke-width="null"/>
  </g>
<!-- </symbol> -->

<!-- <symbol id="color" viewBox="0 240 180 240"> -->
  <g transform="translate(0, 280)">
    <!-- <title>Rubiks Cube</title> -->
    <polygon fill="green" id="svg_1" points="0,60 30,40 60,60 30,80" stroke="#000000" stroke-width="null"/>
    <polygon fill="green" id="svg_2" points="30,40 60,20 90,40 60,60 " stroke="#000000" stroke-width="null"/>
    <polygon fill="green" id="svg_3" points="60,20 90,0 120,20 90,40 " stroke="#000000" stroke-width="null"/>
    <polygon fill="green" id="svg_5" points="60,60 90,40 120,60 90,80 " stroke="#000000" stroke-width="null"/>
    <polygon fill="green" id="svg_6" points="90,40 120,20 150,40 120,60 " stroke="#000000" stroke-width="null"/>
    <polygon fill="green" id="svg_4" points="30,80 60,60 90,80 60,100 " stroke="#000000" stroke-width="null"/>
    <polygon fill="green" id="svg_7" points="60,100 90,80 120,100 90,120 " stroke="#000000" stroke-width="null"/>
    <polygon fill="green" id="svg_8" points="90,80 120,60 150,80 120,100 " stroke="#000000" stroke-width="null"/>
    <polygon fill="green" id="svg_9" points="120,60 150,40 180,60 150,80 " stroke="#000000" stroke-width="null"/>
    <polygon fill="yellow" id="svg_10" points="0,60 30,80 30,120 0,100 " stroke="#000000" stroke-width="null"/>
    <polygon fill="yellow" id="svg_11" points="30,80 60,100 60,140 30,120 " stroke="#000000" stroke-width="null"/>
    <polygon fill="yellow" id="svg_12" points="60,100 90,120 90,160 60,140 " stroke="#000000" stroke-width="null"/>
    <polygon fill="yellow" id="svg_13" points="0,100 30,120 30,160 0,140 " stroke="#000000" stroke-width="null"/>
    <polygon fill="yellow" id="svg_14" points="30,120 60,140 60,180 30,160 " stroke="#000000" stroke-width="null"/>
    <polygon fill="yellow" id="svg_15" points="60,140 90,160 90,200 60,180 " stroke="#000000" stroke-width="null"/>
    <polygon fill="yellow" id="svg_16" points="0,140 30,160 30,200 0,180 " stroke="#000000" stroke-width="null"/>
    <polygon fill="yellow" id="svg_17" points="30,160 60,180 60,220 30,200 " stroke="#000000" stroke-width="null"/>
    <polygon fill="yellow" id="svg_18" points="60,180 90,200 90,240 60,220 " stroke="#000000" stroke-width="null"/>
    <polygon fill="blue" id="svg_19" points="90,120 120,100 120,140 90,160 " stroke="#000000" stroke-width="null"/>
    <polygon fill="blue" id="svg_20" points="120,100 150,80 150,120 120,140 " stroke="#000000" stroke-width="null"/>
    <polygon fill="blue" id="svg_21" points="150,80 180,60 180,100 150,120 " stroke="#000000" stroke-width="null"/>
    <polygon fill="blue" id="svg_22" points="90,160 120,140 120,180 90,200 " stroke="#000000" stroke-width="null"/>
    <polygon fill="blue" id="svg_23" points="120,140 150,120 150,160 120,180 " stroke="#000000" stroke-width="null"/>
    <polygon fill="blue" id="svg_24" points="150,120 180,100 180,140 150,160 " stroke="#000000" stroke-width="null"/>
    <polygon fill="blue" id="svg_25" points="90,200 120,180 120,220 90,240 " stroke="#000000" stroke-width="null"/>
    <polygon fill="blue" id="svg_26" points="120,180 150,160 150,200 120,220 " stroke="#000000" stroke-width="null"/>
    <polygon fill="blue" id="svg_27" points="150,160 180,140 180,180 150,200 " stroke="#000000" stroke-width="null"/>  
  </g>
<!-- </symbol> -->

<!-- <view id="blackAndWhite" viewBox="0 0 180 480"/>
<view id="color" viewBox="0 0 180 480"/>

<use xlink:href="#blackAndWhite" width="18" height="24" x="0" y="0"/>
<use xlink:href="#color" width="18" height="24" x="0" y="24"/> -->

</svg>