<svg xmlns="http://www.w3.org/2000/svg" xmlns:svg="http://www.w3.org/2000/svg" viewBox="0 0 380 340" width="180">
 <!--  height="340"  Created with SVG-edit - https://github.com/SVG-Edit/svgedit-->

 <g class="HTML layer" transform="scale(0.25) translate(0, 800)">
  <title>HTML</title>
  <path d="m512,256c0,82.317 -38.86,155.564 -99.234,202.397c-43.311,33.604 -97.698,53.603 -156.766,53.603c-58.535,0 -112.473,-19.644 -155.596,-52.705c-61.043,-46.78 -100.404,-120.445 -100.404,-203.295c0,-141.385 114.615,-256 256,-256s256,114.615 256,256z" fill="none" id="svg_1"/>
  <path d="m441.992,119.474l-29.226,338.923c-43.311,33.604 -97.698,53.603 -156.766,53.603c-58.535,0 -112.473,-19.644 -155.596,-52.705l-29.299,-339.821l370.887,0z" fill="#E64C18" id="svg_2"/>
  <polygon fill="#F36518" id="svg_3" points="256.546,151.249 256.546,504.167 378.46,469.75 405.655,151.249 "/>
  <polygon fill="#FFFFFF" id="svg_4" points="140.903,195.528 152.858,337.091 311.761,337.091 306.562,395.568 256.549,409.112   204.46,394.52 203.152,358.061 154.631,358.061 160.705,429.941 256.549,457.028 352.392,429.941 364.27,289.295 196.928,289.295   192.775,243.456 192.774,243.454 368.226,242.535 372.194,195.528 "/>
  <polygon id="svg_5" points="151.159,16.796 151.159,41.117 127.921,41.117 127.921,16.796 106.303,16.796 106.303,86.513 127.921,86.513   127.921,63.815 151.159,63.815 151.159,86.513 172.777,86.513 172.777,16.796 "/>
  <polygon id="svg_6" points="249.521,16.796 183.045,16.796 183.045,41.117 204.663,41.117 204.663,87.055 227.903,87.055 227.903,41.117   249.521,41.117 "/>
  <polygon id="svg_7" points="373.284,64.895 373.284,17.337 350.044,17.337 350.044,64.895 350.044,87.055 373.284,87.055 406.79,87.055   406.79,64.895 "/>
  <polygon id="svg_8" points="314.914,17.337 298.702,42.197 282.488,17.337 259.249,17.337 259.249,87.055 282.488,87.055 282.488,52.465   298.702,77.327 314.914,52.465 314.914,87.055 338.154,87.055 338.154,17.337 "/>
 </g>
 <g class="CSS layer" transform="scale(0.25) translate(1000, 800)">
  <title>CSS</title>
  <path d="m512,256c0,82.317 -38.86,155.564 -99.234,202.397c-43.311,33.604 -97.698,53.603 -156.766,53.603s-113.455,-19.999 -156.766,-53.603c-60.374,-46.833 -99.234,-120.08 -99.234,-202.397c0,-141.385 114.615,-256 256,-256s256,114.615 256,256z" fill="none" id="svg_10"/>
  <path d="m441.992,119.474l-29.226,338.923c-43.311,33.604 -97.698,53.603 -156.766,53.603s-113.455,-19.999 -156.766,-53.603l-29.226,-338.923l371.984,0z" fill="#006BC0" id="svg_11"/>
  <polygon fill="#0096DC" id="svg_12" points="255.997,151.338 255.997,505.296 378.269,470.777 405.545,151.338 "/>
  <polygon fill="#FFFFFF" id="svg_13" points="364.036,289.787 275.85,289.787 367.999,242.89 371.981,195.746 140.013,195.746  144.072,243.811 237.189,243.811 147.845,288.484 152.002,337.723 152.002,337.723 311.376,337.723 306.152,396.366 255.997,409.95  203.752,395.321 202.446,358.75 153.778,358.75 159.866,430.848 255.997,458.015 352.127,430.848 364.039,289.779 "/>
  <polygon fill="#222123" id="svg_14" points="165.352,67.224 165.352,33.787 213.417,33.787 213.417,15.676 147.937,15.676   147.937,85.335 213.417,85.335 213.417,67.224  "/>
  <polygon fill="#222123" id="svg_15" points="241.542,42.93 241.542,34.57 289.347,34.57 289.347,33.787 289.347,15.676 223.866,15.676   223.866,58.864 270.799,58.864 270.799,67.224 223.866,67.224 223.866,85.335 289.347,85.335 289.347,67.224 289.347,42.93  "/>
  <polygon fill="#222123" id="svg_16" points="316.252,42.93 316.252,34.57 364.056,34.57 364.056,33.787 364.056,15.676 298.576,15.676   298.576,58.864 345.509,58.864 345.509,67.224 298.576,67.224 298.576,85.335 364.056,85.335 364.056,67.224 364.056,42.93  "/>
 </g>
 <g class="JS layer" transform="scale(5) translate(22, -6)">
  <title>JS</title>
  <path d="m18.774,19.7a3.727,3.727 0 0 0 3.376,2.078c1.418,0 2.324,-0.709 2.324,-1.688c0,-1.173 -0.931,-1.589 -2.491,-2.272l-0.856,-0.367c-2.469,-1.052 -4.11,-2.37 -4.11,-5.156c0,-2.567 1.956,-4.52 5.012,-4.52a5.058,5.058 0 0 1 4.871,2.745l-2.665,1.711a2.327,2.327 0 0 0 -2.2,-1.467a1.489,1.489 0 0 0 -1.638,1.467c0,1.027 0.636,1.442 2.1,2.078l0.856,0.366c2.908,1.247 4.549,2.518 4.549,5.376c0,3.081 -2.42,4.769 -5.671,4.769a6.575,6.575 0 0 1 -6.236,-3.5l2.779,-1.62zm-12.088,0.3c0.538,0.954 1.027,1.76 2.2,1.76c1.124,0 1.834,-0.44 1.834,-2.15l0,-11.635l3.422,0l0,11.683c0,3.543 -2.078,5.156 -5.11,5.156a5.312,5.312 0 0 1 -5.132,-3.126l2.786,-1.688z" fill="#fbc02d" id="svg_9"/>
 </g>
 <g class="layer">
  <title>Layer 1</title>
  <g class="lines" id="svg_17"/>
  <line fill="none" id="svg_18" stroke="#000000" stroke-width="5" x1="138" x2="70" y1="110.00001" y2="182.00002"/>
  <line fill="none" id="svg_18" stroke="#000000" stroke-width="5" x1="254" x2="310" y1="110.00001" y2="182.00002"/>
  <line fill="none" id="svg_18" stroke="#000000" stroke-width="5" x1="242" x2="138" y1="266" y2="266.00002"/>
 </g>
</svg>
